<svg width="192" height="192" viewBox="0 0 192 192" fill="none" xmlns="http://www.w3.org/2000/svg">
<path d="M149.972 126.114C156.309 133.364 155.625 144.595 147.119 149.106C143.303 151.129 139.313 152.827 135.187 154.175C125.518 157.334 115.31 158.508 105.176 157.627C95.0422 156.746 85.1904 153.827 76.2117 149.046C67.233 144.265 59.3123 137.72 52.9244 129.803C46.5365 121.887 41.8131 112.762 39.0374 102.975C36.2616 93.189 35.4907 82.943 36.7708 72.8515C38.051 62.7601 41.3558 53.031 46.4872 44.2478C48.6764 40.5006 51.1788 36.9585 53.9625 33.6571C60.1695 26.2958 71.2914 28.0005 77.0379 35.7266L77.6692 36.5754C83.067 43.8328 81.1575 54.0278 76.5949 61.8374C73.8318 66.5669 72.0523 71.8057 71.363 77.2397C70.6736 82.6736 71.0888 88.1908 72.5834 93.4604C74.0781 98.7301 76.6215 103.644 80.0612 107.906C83.5008 112.169 87.7659 115.694 92.6007 118.268C97.4355 120.843 102.74 122.414 108.197 122.889C113.654 123.363 119.151 122.731 124.357 121.03C132.955 118.221 143.323 118.509 149.276 125.318L149.972 126.114Z" fill="#3ED35F"/>
</svg>
