<svg width="177" height="231" viewBox="0 0 177 231" fill="none" xmlns="http://www.w3.org/2000/svg">
<path d="M156.084 81.0229C167.267 79.7087 175.485 69.4332 171.648 58.8472C169.927 54.0996 167.798 49.4966 165.278 45.0913C159.372 34.7655 151.442 25.7387 141.963 18.552C132.484 11.3654 121.651 6.16693 110.114 3.26841C98.5776 0.369888 86.5742 -0.16902 74.824 1.684C63.0738 3.53701 51.8188 7.74379 41.7338 14.0521C31.6489 20.3604 22.9417 28.6403 16.1343 38.3953C9.32693 48.1504 4.5596 59.1796 2.11816 70.8218C1.07656 75.7887 0.467466 80.8235 0.291165 85.8703C-0.101943 97.1234 10.8797 104.371 21.9244 102.18L23.1377 101.939C33.5123 99.881 39.8551 89.5423 42.0259 79.1907C43.3406 72.9217 45.9076 66.9828 49.5732 61.73C53.2388 56.4772 57.9273 52.0187 63.3578 48.6219C68.7882 45.2251 74.8487 42.9598 81.1759 41.9621C87.503 40.9643 93.9665 41.2544 100.179 42.8152C106.391 44.376 112.224 47.1752 117.328 51.045C122.433 54.9148 126.703 59.7755 129.883 65.3356C135.134 74.5168 144.351 82.4017 154.855 81.1673L156.084 81.0229Z" fill="#3E71D3"/>
<ellipse cx="88.2404" cy="154.785" rx="22.8669" ry="75.8765" fill="#FEFEFE"/>
</svg>
