<svg width="177" height="270" fill="none" xmlns="http://www.w3.org/2000/svg"><path d="M117.165 193.785c0 41.905-10.237 75.876-22.867 75.876-12.629 0-22.866-33.971-22.866-75.876 0-41.906 10.237-75.877 22.867-75.877 12.629 0 22.866 33.971 22.866 75.877z" fill="#FEFEFE"/><path d="M19.803 22.279C8.578 23.166-.027 33.12 3.405 43.845a88.348 88.348 0 00154.621 26.363 88.365 88.365 0 0017.641-46.837c.821-11.23-9.876-18.89-20.996-17.122l-1.222.194c-10.446 1.662-17.178 11.751-19.741 22.012a47.581 47.581 0 01-22.481 29.734 47.575 47.575 0 01-65.84-19.236c-4.898-9.375-13.807-17.605-24.351-16.772l-1.233.098z" fill="#F1DA08"/></svg>