<svg width="308" height="196" fill="none" xmlns="http://www.w3.org/2000/svg"><path d="M301.862 69.258a93.562 93.562 0 01-1.572 59.543c-2.439 6.672-10.318 9.041-16.593 5.712l-17.683-9.383c-6.275-3.33-8.458-11.126-6.912-18.06 4.558-20.45-4.804-42.237-24.194-52.574-23.304-12.423-52.265-3.602-64.688 19.7a.09.09 0 01-.122.038L141.13 58.863c-6.275-3.33-8.73-11.183-4.572-16.942a93.562 93.562 0 01165.304 27.337z" fill="#F1DA08"/><path d="M205.903 116.734a93.272 93.272 0 01-6.862 33.743c-3.093 7.604-12.362 9.807-19.375 5.54l-10.483-6.379c-7.005-4.262-8.985-13.402-6.908-21.335a51.281 51.281 0 00-4.995-38.258 51.238 51.238 0 00-18.922-19.091 51.18 51.18 0 00-25.975-6.876 51.152 51.152 0 00-25.872 7.233A51.185 51.185 0 0067.866 90.66a51.243 51.243 0 00-4.437 38.334c2.192 7.899.346 17.063-6.593 21.426l-10.382 6.529c-6.95 4.37-16.251 2.303-19.456-5.255a93.298 93.298 0 01-7.362-33.645 93.255 93.255 0 0111.419-47.571 93.145 93.145 0 0133.923-35.223 93.085 93.085 0 0147.085-13.173 93.131 93.131 0 0147.274 12.506 93.248 93.248 0 0134.443 34.74 93.306 93.306 0 0112.123 47.406z" fill="#FBFAF7"/></svg>