<svg width="198" height="257" fill="none" xmlns="http://www.w3.org/2000/svg"><path d="M183.018 81.684c8.633-9.48 8.026-24.452-3.178-30.688a100.604 100.604 0 00-75.892-9.022 100.611 100.611 0 00-60.335 46.91c-6.375 11.126.835 24.262 13.124 27.923 12.289 3.661 24.937-3.892 33.374-13.548a54.172 54.172 0 0157.33-15.945c12.211 3.913 26.943 3.85 35.577-5.63z" fill="#3ED35F"/><path d="M29.232 236.8c1.827 12.692 13.769 21.743 25.706 17.06a100.614 100.614 0 0044.99-34.988A100.61 100.61 0 0019.09 59.592C6.267 59.477-1.658 72.193 1.165 84.701l.31 1.374c2.65 11.75 14.608 18.663 26.457 20.827a54.184 54.184 0 0135.432 23.377 54.175 54.175 0 01-17.052 76.228c-10.296 6.25-18.998 16.976-17.281 28.898l.2 1.394z" fill="#fff"/></svg>